<svg xmlns="http://www.w3.org/2000/svg" width="24" height="24" viewBox="0 0 24 24" fill="none">
  <path d="M12 15.4a3.4 3.4 0 1 0 0-6.8 3.4 3.4 0 0 0 0 6.8Z" stroke="#4f5967" stroke-width="1.8"/>
  <path d="m18.2 13.1 1.5 1.2-1.7 2.9-1.8-.7a7 7 0 0 1-1.6.9l-.3 1.9H9.7l-.3-1.9a7 7 0 0 1-1.6-.9l-1.8.7-1.7-2.9 1.5-1.2a7 7 0 0 1 0-2.2L4.3 9.7 6 6.8l1.8.7c.5-.4 1-.7 1.6-.9l.3-1.9h4.6l.3 1.9c.6.2 1.1.5 1.6.9l1.8-.7 1.7 2.9-1.5 1.2a7 7 0 0 1 0 2.2Z" stroke="#4f5967" stroke-width="1.5" stroke-linejoin="round"/>
</svg>

